<svg width="22" height="24" viewBox="0 0 22 24" fill="none" xmlns="http://www.w3.org/2000/svg">
<g filter="url(#filter0_d_266_333)">
<path d="M10.192 15L10.064 13.528V7H12.176V15H10.192ZM4.768 11.096V7H6.88V11.096H4.768ZM6.88 11.096C6.88 11.6293 6.93867 12.0507 7.056 12.36C7.184 12.6587 7.36 12.8773 7.584 13.016C7.81867 13.144 8.08 13.208 8.368 13.208C8.92267 13.2187 9.344 13.0533 9.632 12.712C9.92 12.36 10.064 11.8533 10.064 11.192H10.784C10.784 12.0453 10.656 12.7707 10.4 13.368C10.144 13.9547 9.792 14.408 9.344 14.728C8.896 15.0373 8.368 15.192 7.76 15.192C7.12 15.192 6.576 15.064 6.128 14.808C5.68 14.552 5.33867 14.1573 5.104 13.624C4.88 13.08 4.768 12.3813 4.768 11.528V11.096H6.88Z" fill="#6C63FF"/>
<path d="M15.656 10.08C15.2133 10.08 14.8133 9.96 14.456 9.72C14.0987 9.48 13.8133 9.14133 13.6 8.704C13.392 8.26667 13.288 7.75733 13.288 7.176C13.288 6.59467 13.392 6.088 13.6 5.656C13.808 5.224 14.088 4.888 14.44 4.648C14.7973 4.408 15.1947 4.288 15.632 4.288C16.08 4.288 16.48 4.408 16.832 4.648C17.1893 4.888 17.472 5.22667 17.68 5.664C17.888 6.096 17.992 6.60533 17.992 7.192C17.992 7.77333 17.888 8.28267 17.68 8.72C17.472 9.152 17.192 9.488 16.84 9.728C16.488 9.96267 16.0933 10.08 15.656 10.08ZM15.64 9.096C15.896 9.096 16.1173 9.024 16.304 8.88C16.4907 8.736 16.6347 8.52267 16.736 8.24C16.8427 7.95733 16.896 7.60533 16.896 7.184C16.896 6.76267 16.8427 6.41067 16.736 6.128C16.6347 5.84533 16.488 5.63467 16.296 5.496C16.1093 5.352 15.888 5.28 15.632 5.28C15.3813 5.28 15.1627 5.352 14.976 5.496C14.7893 5.63467 14.6427 5.84533 14.536 6.128C14.4347 6.40533 14.384 6.75467 14.384 7.176C14.384 7.60267 14.4347 7.95733 14.536 8.24C14.6427 8.52267 14.7893 8.736 14.976 8.88C15.1627 9.024 15.384 9.096 15.64 9.096Z" fill="#2F2E41"/>
</g>
<defs>
<filter id="filter0_d_266_333" x="-1" y="0" width="25" height="25" filterUnits="userSpaceOnUse" color-interpolation-filters="sRGB">
<feFlood flood-opacity="0" result="BackgroundImageFix"/>
<feColorMatrix in="SourceAlpha" type="matrix" values="0 0 0 0 0 0 0 0 0 0 0 0 0 0 0 0 0 0 127 0" result="hardAlpha"/>
<feOffset dy="4"/>
<feGaussianBlur stdDeviation="2"/>
<feComposite in2="hardAlpha" operator="out"/>
<feColorMatrix type="matrix" values="0 0 0 0 0 0 0 0 0 0 0 0 0 0 0 0 0 0 0.25 0"/>
<feBlend mode="normal" in2="BackgroundImageFix" result="effect1_dropShadow_266_333"/>
<feBlend mode="normal" in="SourceGraphic" in2="effect1_dropShadow_266_333" result="shape"/>
</filter>
</defs>
</svg>
